<svg width="16" height="16" viewBox="0 0 16 16" fill="none" xmlns="http://www.w3.org/2000/svg">
<g id="vuesax/linear/star">
<g id="star">
<path id="Vector" d="M9.15327 2.34013L10.3266 4.6868C10.4866 5.01347 10.9133 5.3268 11.2733 5.3868L13.3999 5.74013C14.7599 5.9668 15.0799 6.95347 14.0999 7.9268L12.4466 9.58013C12.1666 9.86013 12.0133 10.4001 12.0999 10.7868L12.5733 12.8335C12.9466 14.4535 12.0866 15.0801 10.6533 14.2335L8.65994 13.0535C8.29994 12.8401 7.70661 12.8401 7.33994 13.0535L5.34661 14.2335C3.91994 15.0801 3.05327 14.4468 3.42661 12.8335L3.89994 10.7868C3.98661 10.4001 3.83327 9.86013 3.55327 9.58013L1.89994 7.9268C0.926606 6.95347 1.23994 5.9668 2.59994 5.74013L4.72661 5.3868C5.07994 5.3268 5.50661 5.01347 5.66661 4.6868L6.83994 2.34013C7.47994 1.0668 8.51994 1.0668 9.15327 2.34013Z" fill="#FFC409"/>
</g>
</g>
</svg>
