<svg width="21" height="20" viewBox="0 0 21 20" fill="none" xmlns="http://www.w3.org/2000/svg">
<path id="Vector" d="M18.375 4.74913H1.96875V4.11367L16.4062 2.99528V4.11367H18.375V2.20731C18.375 0.809316 17.2056 -0.171823 15.7776 0.0251674L2.59875 1.84765C1.16944 2.04591 0 3.35113 0 4.74913V17.4582C0 18.1323 0.276562 18.7788 0.768845 19.2555C1.26113 19.7322 1.92881 20 2.625 20H18.375C19.0712 20 19.7389 19.7322 20.2312 19.2555C20.7234 18.7788 21 18.1323 21 17.4582V7.29094C21 6.61681 20.7234 5.97029 20.2312 5.49361C19.7389 5.01692 19.0712 4.74913 18.375 4.74913ZM16.4062 13.6531C16.1476 13.653 15.8915 13.6036 15.6526 13.5077C15.4137 13.4118 15.1967 13.2712 15.0139 13.0941C14.831 12.917 14.6861 12.7067 14.5872 12.4753C14.4883 12.2439 14.4374 11.9959 14.4375 11.7455C14.4376 11.495 14.4886 11.2471 14.5877 11.0157C14.6867 10.7844 14.8319 10.5742 15.0148 10.3972C15.1977 10.2202 15.4149 10.0798 15.6539 9.98402C15.8928 9.88826 16.1489 9.83902 16.4076 9.8391C16.9299 9.83927 17.4307 10.0403 17.8 10.3981C18.1692 10.7558 18.3765 11.241 18.3763 11.7467C18.3761 12.2525 18.1685 12.7375 17.799 13.095C17.4296 13.4525 16.9286 13.6533 16.4062 13.6531Z" fill="#E2E0EE"/>
</svg>
