<svg width="32" height="32" viewBox="0 0 32 32" fill="none" xmlns="http://www.w3.org/2000/svg">
<g id="vuesax/linear/gallery-add">
<g id="gallery-add">
<path id="Vector" d="M12 13.3333C13.4728 13.3333 14.6667 12.1394 14.6667 10.6667C14.6667 9.19391 13.4728 8 12 8C10.5273 8 9.33337 9.19391 9.33337 10.6667C9.33337 12.1394 10.5273 13.3333 12 13.3333Z" stroke="url(#paint0_linear_1536_356)" stroke-width="2" stroke-linecap="round" stroke-linejoin="round"/>
<path id="Vector_2" d="M17.3333 2.66663H12C5.33329 2.66663 2.66663 5.33329 2.66663 12V20C2.66663 26.6666 5.33329 29.3333 12 29.3333H20C26.6666 29.3333 29.3333 26.6666 29.3333 20V13.3333" stroke="url(#paint1_linear_1536_356)" stroke-width="2" stroke-linecap="round" stroke-linejoin="round"/>
<path id="Vector_3" d="M21 6.66663H28.3333" stroke="url(#paint2_linear_1536_356)" stroke-width="2" stroke-linecap="round"/>
<path id="Vector_4" d="M24.6666 10.3333V3" stroke="url(#paint3_linear_1536_356)" stroke-width="2" stroke-linecap="round"/>
<path id="Vector_5" d="M3.56006 25.2667L10.1334 20.8534C11.1867 20.1467 12.7067 20.2267 13.6534 21.04L14.0934 21.4267C15.1334 22.32 16.8134 22.32 17.8534 21.4267L23.4001 16.6667C24.4401 15.7734 26.1201 15.7734 27.1601 16.6667L29.3334 18.5334" stroke="url(#paint4_linear_1536_356)" stroke-width="2" stroke-linecap="round" stroke-linejoin="round"/>
</g>
</g>
<defs>
<linearGradient id="paint0_linear_1536_356" x1="9.33337" y1="8" x2="15.3597" y2="8.95359" gradientUnits="userSpaceOnUse">
<stop stop-color="#FB2A29"/>
<stop offset="1" stop-color="#E66C3A"/>
<stop offset="1" stop-color="#DE5A23"/>
</linearGradient>
<linearGradient id="paint1_linear_1536_356" x1="2.66663" y1="2.66663" x2="32.7985" y2="7.4346" gradientUnits="userSpaceOnUse">
<stop stop-color="#FB2A29"/>
<stop offset="1" stop-color="#E66C3A"/>
<stop offset="1" stop-color="#DE5A23"/>
</linearGradient>
<linearGradient id="paint2_linear_1536_356" x1="21" y1="6.66663" x2="24.6197" y2="10.8669" gradientUnits="userSpaceOnUse">
<stop stop-color="#FB2A29"/>
<stop offset="1" stop-color="#E66C3A"/>
<stop offset="1" stop-color="#DE5A23"/>
</linearGradient>
<linearGradient id="paint3_linear_1536_356" x1="24.6666" y1="3" x2="25.8243" y2="3.02498" gradientUnits="userSpaceOnUse">
<stop stop-color="#FB2A29"/>
<stop offset="1" stop-color="#E66C3A"/>
<stop offset="1" stop-color="#DE5A23"/>
</linearGradient>
<linearGradient id="paint4_linear_1536_356" x1="3.56006" y1="15.9967" x2="28.5708" y2="27.0001" gradientUnits="userSpaceOnUse">
<stop stop-color="#FB2A29"/>
<stop offset="1" stop-color="#E66C3A"/>
<stop offset="1" stop-color="#DE5A23"/>
</linearGradient>
</defs>
</svg>
