<svg width="210" height="38" viewBox="0 0 210 38" fill="none" xmlns="http://www.w3.org/2000/svg">
<g id="Group 158">
<g id="Game X">
<path d="M69.8201 19.3195H74.8193V30.6593C73.3561 31.8244 71.6491 32.7186 69.6981 33.3418C67.7472 33.965 65.7421 34.2766 63.6828 34.2766C60.7835 34.2766 58.1687 33.6534 55.8384 32.407C53.5081 31.1335 51.6792 29.3858 50.3514 27.1639C49.0237 24.942 48.3599 22.4356 48.3599 19.6447C48.3599 16.8537 49.0237 14.3473 50.3514 12.1255C51.6792 9.90356 53.5081 8.16941 55.8384 6.92298C58.1958 5.64946 60.8377 5.0127 63.7641 5.0127C66.1485 5.0127 68.3162 5.40559 70.2672 6.19138C72.2181 6.97717 73.8574 8.12876 75.1851 9.64615L71.8523 12.8977C69.6846 10.73 67.0698 9.64615 64.0079 9.64615C62.0028 9.64615 60.2145 10.0661 58.6429 10.9061C57.0984 11.7461 55.8791 12.9248 54.9849 14.4422C54.1178 15.9596 53.6843 17.6937 53.6843 19.6447C53.6843 21.5414 54.1178 23.2485 54.9849 24.7658C55.8791 26.2832 57.0984 27.4755 58.6429 28.3425C60.2145 29.2096 61.9893 29.6432 63.9673 29.6432C66.1892 29.6432 68.1401 29.1554 69.8201 28.18V19.3195Z" fill="white"/>
<path d="M89.592 11.9222C92.7893 11.9222 95.228 12.6945 96.9079 14.239C98.615 15.7564 99.4685 18.0595 99.4685 21.1485V33.8702H94.6725V31.2283C94.0493 32.1767 93.1551 32.9083 91.99 33.4231C90.8519 33.9108 89.47 34.1547 87.8443 34.1547C86.2185 34.1547 84.7959 33.8837 83.5766 33.3418C82.3573 32.7728 81.4089 32.0005 80.7315 31.0251C80.0812 30.0225 79.756 28.898 79.756 27.6516C79.756 25.7007 80.4741 24.1426 81.9102 22.9775C83.3734 21.7853 85.663 21.1891 88.7791 21.1891H94.388V20.864C94.388 19.3466 93.9274 18.1815 93.0061 17.3686C92.1119 16.5557 90.7706 16.1492 88.9823 16.1492C87.763 16.1492 86.5572 16.3389 85.3649 16.7183C84.1998 17.0976 83.2108 17.626 82.3979 18.3034L80.4063 14.6048C81.5444 13.7377 82.9127 13.0738 84.5114 12.6132C86.1101 12.1526 87.8036 11.9222 89.592 11.9222ZM88.901 30.4561C90.1745 30.4561 91.299 30.1715 92.2745 29.6025C93.277 29.0064 93.9815 28.1664 94.388 27.0826V24.5626H89.1449C86.2185 24.5626 84.7553 25.5245 84.7553 27.4484C84.7553 28.3696 85.1211 29.1012 85.8527 29.6432C86.5843 30.1851 87.6004 30.4561 88.901 30.4561Z" fill="white"/>
<path d="M133.383 11.9222C136.12 11.9222 138.287 12.7216 139.886 14.3202C141.485 15.8918 142.284 18.2628 142.284 21.433V33.8702H137.204V22.0833C137.204 20.1866 136.784 18.764 135.944 17.8157C135.104 16.8402 133.898 16.3525 132.326 16.3525C130.619 16.3525 129.251 16.9215 128.221 18.0595C127.192 19.1705 126.677 20.7692 126.677 22.8556V33.8702H121.596V22.0833C121.596 20.1866 121.176 18.764 120.336 17.8157C119.496 16.8402 118.29 16.3525 116.719 16.3525C114.985 16.3525 113.603 16.9079 112.573 18.0189C111.571 19.1298 111.069 20.7421 111.069 22.8556V33.8702H105.989V12.1661H110.825V14.9299C111.638 13.9545 112.654 13.2093 113.874 12.6945C115.093 12.1796 116.448 11.9222 117.938 11.9222C119.564 11.9222 121 12.2338 122.247 12.8571C123.52 13.4532 124.523 14.3473 125.254 15.5396C126.148 14.4015 127.3 13.5209 128.709 12.8977C130.118 12.2474 131.676 11.9222 133.383 11.9222Z" fill="white"/>
<path d="M169.378 23.1401C169.378 23.4923 169.351 23.9936 169.297 24.6439H152.267C152.565 26.2426 153.337 27.5161 154.584 28.4645C155.857 29.3858 157.429 29.8464 159.299 29.8464C161.683 29.8464 163.648 29.0606 165.192 27.489L167.915 30.6186C166.94 31.7838 165.707 32.6644 164.217 33.2605C162.726 33.8566 161.046 34.1547 159.177 34.1547C156.792 34.1547 154.692 33.6805 152.877 32.7321C151.061 31.7838 149.652 30.4696 148.65 28.7896C147.674 27.0826 147.187 25.1587 147.187 23.0181C147.187 20.9046 147.661 19.0079 148.609 17.3279C149.585 15.6209 150.926 14.2932 152.633 13.3448C154.34 12.3964 156.264 11.9222 158.404 11.9222C160.518 11.9222 162.401 12.3964 164.054 13.3448C165.734 14.2661 167.035 15.5802 167.956 17.2873C168.904 18.9673 169.378 20.9182 169.378 23.1401ZM158.404 15.9867C156.779 15.9867 155.397 16.4744 154.259 17.4499C153.148 18.3982 152.47 19.6718 152.226 21.2704H164.542C164.325 19.6989 163.661 18.4253 162.55 17.4499C161.439 16.4744 160.057 15.9867 158.404 15.9867Z" fill="white"/>
<path d="M203.903 33.8702L196.181 23.0588L188.54 33.8702H182.524L193.092 19.3601L183.093 5.41914H189.068L196.343 15.5396L203.537 5.41914H209.268L199.31 19.1569L210 33.8702H203.903Z" fill="white"/>
</g>
<path id="Vector" d="M18.6287 15.8344L13.0401 10.2458V0H24.2173V10.2458L18.6287 15.8344ZM27.0116 24.2173L21.423 18.6287L27.0116 13.0401H37.2573V24.2173H27.0116ZM0 24.2173V13.0401H10.2458L15.8344 18.6287L10.2458 24.2173H0ZM13.0401 37.2573V27.0116L18.6287 21.423L24.2173 27.0116V37.2573H13.0401Z" fill="url(#paint0_linear_1692_804)"/>
</g>
<defs>
<linearGradient id="paint0_linear_1692_804" x1="0" y1="0" x2="42.0987" y2="6.66157" gradientUnits="userSpaceOnUse">
<stop stop-color="#FB2A29"/>
<stop offset="1" stop-color="#E66C3A"/>
<stop offset="1" stop-color="#DE5A23"/>
</linearGradient>
</defs>
</svg>
