<svg width="210" height="38" viewBox="0 0 210 38" fill="none" xmlns="http://www.w3.org/2000/svg">
<g id="Group 139">
<g id="Game X">
<path d="M69.8202 20.0622H74.8195V31.402C73.3563 32.5671 71.6492 33.4613 69.6983 34.0845C67.7473 34.7077 65.7422 35.0193 63.6829 35.0193C60.7836 35.0193 58.1688 34.3961 55.8385 33.1497C53.5083 31.8761 51.6793 30.1284 50.3516 27.9065C49.0238 25.6846 48.36 23.1782 48.36 20.3873C48.36 17.5964 49.0238 15.09 50.3516 12.8681C51.6793 10.6462 53.5083 8.91208 55.8385 7.66565C58.1959 6.39213 60.8378 5.75537 63.7642 5.75537C66.1487 5.75537 68.3164 6.14827 70.2673 6.93406C72.2182 7.71985 73.8575 8.87144 75.1853 10.3888L71.8524 13.6404C69.6847 11.4727 67.0699 10.3888 64.0081 10.3888C62.0029 10.3888 60.2146 10.8088 58.643 11.6488C57.0985 12.4888 55.8792 13.6675 54.985 15.1849C54.1179 16.7022 53.6844 18.4364 53.6844 20.3873C53.6844 22.2841 54.1179 23.9911 54.985 25.5085C55.8792 27.0259 57.0985 28.2181 58.643 29.0852C60.2146 29.9523 61.9894 30.3858 63.9674 30.3858C66.1893 30.3858 68.1402 29.8981 69.8202 28.9226V20.0622Z" fill="white"/>
<path d="M89.5921 12.6649C92.7894 12.6649 95.2281 13.4372 96.9081 14.9816C98.6151 16.499 99.4687 18.8022 99.4687 21.8912V34.6129H94.6726V31.971C94.0494 32.9193 93.1552 33.6509 91.9901 34.1658C90.8521 34.6535 89.4701 34.8974 87.8444 34.8974C86.2186 34.8974 84.7961 34.6264 83.5767 34.0845C82.3574 33.5155 81.409 32.7432 80.7316 31.7677C80.0813 30.7652 79.7562 29.6407 79.7562 28.3943C79.7562 26.4433 80.4742 24.8853 81.9103 23.7202C83.3735 22.5279 85.6631 21.9318 88.7792 21.9318H94.3881V21.6067C94.3881 20.0893 93.9275 18.9241 93.0062 18.1113C92.112 17.2984 90.7708 16.8919 88.9824 16.8919C87.7631 16.8919 86.5573 17.0816 85.3651 17.4609C84.1999 17.8403 83.2109 18.3687 82.398 19.0461L80.4065 15.3474C81.5445 14.4804 82.9129 13.8165 84.5115 13.3559C86.1102 12.8952 87.8037 12.6649 89.5921 12.6649ZM88.9011 31.1987C90.1746 31.1987 91.2991 30.9142 92.2746 30.3452C93.2772 29.7491 93.9817 28.9091 94.3881 27.8252V25.3053H89.145C86.2186 25.3053 84.7554 26.2672 84.7554 28.191C84.7554 29.1123 85.1212 29.8439 85.8528 30.3858C86.5844 30.9278 87.6005 31.1987 88.9011 31.1987Z" fill="white"/>
<path d="M133.383 12.6649C136.12 12.6649 138.288 13.4642 139.886 15.0629C141.485 16.6345 142.284 19.0054 142.284 22.1757V34.6129H137.204V22.826C137.204 20.9293 136.784 19.5067 135.944 18.5583C135.104 17.5829 133.898 17.0951 132.326 17.0951C130.619 17.0951 129.251 17.6642 128.221 18.8022C127.192 19.9132 126.677 21.5118 126.677 23.5982V34.6129H121.596V22.826C121.596 20.9293 121.176 19.5067 120.336 18.5583C119.496 17.5829 118.291 17.0951 116.719 17.0951C114.985 17.0951 113.603 17.6506 112.573 18.7616C111.571 19.8725 111.069 21.4847 111.069 23.5982V34.6129H105.989V12.9088H110.826V15.6726C111.638 14.6971 112.655 13.952 113.874 13.4372C115.093 12.9223 116.448 12.6649 117.938 12.6649C119.564 12.6649 121 12.9765 122.247 13.5997C123.52 14.1958 124.523 15.09 125.254 16.2823C126.148 15.1442 127.3 14.2636 128.709 13.6404C130.118 12.9901 131.676 12.6649 133.383 12.6649Z" fill="white"/>
<path d="M169.379 23.8827C169.379 24.235 169.351 24.7363 169.297 25.3866H152.267C152.565 26.9853 153.338 28.2588 154.584 29.2072C155.857 30.1284 157.429 30.5891 159.299 30.5891C161.683 30.5891 163.648 29.8033 165.192 28.2317L167.915 31.3613C166.94 32.5264 165.707 33.4071 164.217 34.0032C162.726 34.5993 161.046 34.8974 159.177 34.8974C156.792 34.8974 154.692 34.4232 152.877 33.4748C151.061 32.5264 149.652 31.2123 148.65 29.5323C147.674 27.8253 147.187 25.9014 147.187 23.7608C147.187 21.6473 147.661 19.7506 148.609 18.0706C149.585 16.3635 150.926 15.0358 152.633 14.0875C154.34 13.1391 156.264 12.6649 158.405 12.6649C160.518 12.6649 162.401 13.1391 164.054 14.0875C165.734 15.0087 167.035 16.3229 167.956 18.03C168.904 19.7099 169.379 21.6609 169.379 23.8827ZM158.405 16.7293C156.779 16.7293 155.397 17.2171 154.259 18.1925C153.148 19.1409 152.47 20.4144 152.227 22.0131H164.542C164.325 20.4415 163.661 19.168 162.55 18.1925C161.439 17.2171 160.057 16.7293 158.405 16.7293Z" fill="white"/>
<path d="M203.903 34.6129L196.181 23.8015L188.54 34.6129H182.524L193.092 20.1028L183.093 6.16181H189.068L196.343 16.2823L203.538 6.16181H209.268L199.311 19.8996L210 34.6129H203.903Z" fill="white"/>
</g>
<path id="Vector" d="M18.6287 16.577L13.0401 10.9884V0.742676H24.2173V10.9884L18.6287 16.577ZM27.0116 24.9599L21.423 19.3713L27.0116 13.7827H37.2573V24.9599H27.0116ZM0 24.9599V13.7827H10.2458L15.8344 19.3713L10.2458 24.9599H0ZM13.0401 38V27.7542L18.6287 22.1656L24.2173 27.7542V38H13.0401Z" fill="url(#paint0_linear_1145_597)"/>
</g>
<defs>
<linearGradient id="paint0_linear_1145_597" x1="18.6287" y1="0.742676" x2="18.6287" y2="38" gradientUnits="userSpaceOnUse">
<stop stop-color="#FF0000"/>
<stop offset="1" stop-color="#FF4D00"/>
</linearGradient>
</defs>
</svg>
