<svg width="25" height="24" viewBox="0 0 25 24" fill="none" xmlns="http://www.w3.org/2000/svg">
<path id="Vector" opacity="0.16" d="M24.467 9.83747C24.6097 10.6429 24.6809 11.4589 24.6797 12.2764C24.6797 15.9273 23.3484 19.0142 21.0316 21.1036H21.0347C19.0087 22.938 16.2237 24 12.9215 24C9.67474 24 6.561 22.7358 4.26522 20.4854C1.96944 18.235 0.679688 15.1829 0.679688 12.0004C0.679688 8.8179 1.96944 5.76576 4.26522 3.51539C6.561 1.26503 9.67474 0.000791804 12.9215 0.000791804C15.9604 -0.0340946 18.8952 1.08501 21.1112 3.12369L17.6162 6.54958C16.3528 5.36908 14.6667 4.72262 12.9215 4.74963C9.72788 4.74963 7.0148 6.86157 6.0477 9.70547C5.53493 11.1957 5.53493 12.8096 6.0477 14.2998H6.05229C7.02398 17.1392 9.73248 19.2512 12.926 19.2512C14.5756 19.2512 15.9926 18.8372 17.0913 18.1052H17.0867C17.7247 17.6909 18.2704 17.1542 18.6909 16.5275C19.1115 15.9008 19.3981 15.1971 19.5335 14.4588H12.9215V9.83897L24.467 9.83747Z" fill="white"/>
</svg>
