<svg width="22" height="21" viewBox="0 0 22 21" fill="none" xmlns="http://www.w3.org/2000/svg">
<path id="Vector" d="M21.0308 8.60778C21.1535 9.31252 21.2146 10.0265 21.2136 10.7418C21.2136 13.9364 20.0692 16.6374 18.0776 18.4656H18.0802C16.3385 20.0708 13.9444 21 11.1057 21C8.31462 21 5.63789 19.8938 3.66433 17.9247C1.69077 15.9557 0.582031 13.285 0.582031 10.5003C0.582031 7.71566 1.69077 5.04504 3.66433 3.07597C5.63789 1.1069 8.31462 0.000692828 11.1057 0.000692828C13.7181 -0.0298327 16.241 0.94938 18.146 2.73323L15.1415 5.73088C14.0554 4.69794 12.6059 4.13229 11.1057 4.15593C8.36031 4.15593 6.02801 6.00387 5.19664 8.49229C4.75584 9.79622 4.75584 11.2084 5.19664 12.5123H5.20059C6.0359 14.9968 8.36425 16.8448 11.1096 16.8448C12.5277 16.8448 13.7458 16.4825 14.6903 15.842H14.6863C15.2347 15.4795 15.7039 15.0099 16.0654 14.4616C16.4269 13.9132 16.6733 13.2975 16.7897 12.6515H11.1057V8.6091L21.0308 8.60778Z" fill="#2D2D2D"/>
</svg>
