<svg width="24" height="22" viewBox="0 0 24 22" fill="none" xmlns="http://www.w3.org/2000/svg">
<path id="Vector" opacity="0.16" fill-rule="evenodd" clip-rule="evenodd" d="M21.5142 0.298199C21.8093 0.170989 22.1323 0.127115 22.4495 0.171143C22.7668 0.215172 23.0667 0.345493 23.3181 0.548542C23.5695 0.751592 23.7632 1.01995 23.879 1.32567C23.9947 1.6314 24.0284 1.96333 23.9764 2.2869L21.2682 19.1126C21.0055 20.7356 19.2669 21.6664 17.8137 20.8579C16.5981 20.1816 14.7926 19.1395 13.1686 18.0522C12.3566 17.508 9.8693 15.7651 10.175 14.5249C10.4377 13.4645 14.6171 9.47975 17.0053 7.11067C17.9426 6.17992 17.5151 5.64299 16.4082 6.49914C13.6594 8.62483 9.24598 11.8574 7.78679 12.7674C6.49955 13.5697 5.82846 13.7067 5.02602 13.5697C3.56205 13.3202 2.20436 12.9337 1.09623 12.4628C-0.401171 11.8268 -0.328331 9.71825 1.09504 9.10427L21.5142 0.298199Z" fill="white"/>
</svg>
