<svg width="25" height="21" viewBox="0 0 25 21" fill="none" xmlns="http://www.w3.org/2000/svg">
<path id="Vector" fill-rule="evenodd" clip-rule="evenodd" d="M22.0358 0.143667C22.3381 0.0164576 22.6689 -0.0274162 22.9938 0.016612C23.3188 0.0606403 23.626 0.190961 23.8835 0.394011C24.141 0.59706 24.3394 0.865415 24.458 1.17114C24.5765 1.47687 24.611 1.8088 24.5578 2.13237L21.7839 18.9581C21.5148 20.5811 19.734 21.5118 18.2456 20.7034C17.0005 20.027 15.1512 18.985 13.4878 17.8977C12.6561 17.3534 10.1085 15.6106 10.4216 14.3704C10.6907 13.31 14.9714 9.32522 17.4175 6.95614C18.3776 6.02539 17.9398 5.48846 16.806 6.34461C13.9905 8.4703 9.47006 11.7029 7.97547 12.6128C6.65701 13.4152 5.96965 13.5521 5.14775 13.4152C3.64827 13.1656 2.25764 12.7792 1.12264 12.3083C-0.411087 11.6723 -0.33648 9.56372 1.12141 8.94974L22.0358 0.143667Z" fill="#2D2D2D"/>
</svg>
