<svg width="22" height="21" viewBox="0 0 22 21" fill="none" xmlns="http://www.w3.org/2000/svg">
<path id="Vector" d="M14.3087 0H7.86693C1.98063 0 0.582031 1.39965 0.582031 7.27335V13.7161C0.582031 19.6003 1.97118 21 7.85538 21H14.2982C20.1824 21 21.582 19.6108 21.582 13.7266V7.2849C21.582 1.3986 20.1929 0 14.3087 0ZM17.5353 14.9835H16.0034C15.4238 14.9835 15.2495 14.5141 14.21 13.4746C13.3028 12.6 12.9195 12.4908 12.6896 12.4908C12.3725 12.4908 12.2853 12.5779 12.2853 13.0158V14.3934C12.2853 14.7661 12.1646 14.9845 11.1912 14.9845C10.2466 14.9211 9.33055 14.6341 8.51856 14.1472C7.70657 13.6603 7.02186 12.9875 6.52083 12.1842C5.33136 10.7037 4.50372 8.96609 4.10373 7.10955C4.10373 6.8796 4.19088 6.6717 4.62873 6.6717H6.16068C6.55443 6.6717 6.69618 6.84705 6.84948 7.2513C7.59288 9.4395 8.86128 11.3421 9.37578 11.3421C9.57318 11.3421 9.65928 11.2549 9.65928 10.7625V8.5092C9.59418 7.48125 9.04818 7.3941 9.04818 7.0224C9.05519 6.92436 9.10012 6.83291 9.17343 6.76744C9.24675 6.70197 9.34268 6.66763 9.44088 6.6717H11.8475C12.1761 6.6717 12.2853 6.8355 12.2853 7.22925V10.2701C12.2853 10.5987 12.4271 10.7079 12.5258 10.7079C12.7232 10.7079 12.8754 10.5987 13.2366 10.2375C14.0124 9.2914 14.6463 8.23733 15.1182 7.1085C15.1665 6.97291 15.2577 6.85682 15.3781 6.77795C15.4985 6.69908 15.6414 6.66177 15.785 6.6717H17.3169C17.7758 6.6717 17.8734 6.90165 17.7758 7.22925C17.2187 8.4771 16.5295 9.66162 15.7199 10.7625C15.555 11.0145 15.4889 11.1457 15.7199 11.4408C15.8721 11.6707 16.4087 12.1191 16.7699 12.5454C17.2948 13.069 17.7307 13.6747 18.0603 14.3388C18.1916 14.7651 17.9721 14.9835 17.5353 14.9835Z" fill="#2D2D2D"/>
</svg>
