<svg width="25" height="24" viewBox="0 0 25 24" fill="none" xmlns="http://www.w3.org/2000/svg">
<path id="Vector" opacity="0.16" d="M16.3673 0H9.00529C2.27809 0 0.679688 1.5996 0.679688 8.3124V15.6756C0.679688 22.4004 2.26729 24 8.99209 24H16.3553C23.0801 24 24.6797 22.4124 24.6797 15.6876V8.3256C24.6797 1.5984 23.0921 0 16.3673 0ZM20.0549 17.124H18.3041C17.6417 17.124 17.4425 16.5876 16.2545 15.3996C15.2177 14.4 14.7797 14.2752 14.5169 14.2752C14.1545 14.2752 14.0549 14.3748 14.0549 14.8752V16.4496C14.0549 16.8756 13.9169 17.1252 12.8045 17.1252C11.7249 17.0527 10.678 16.7247 9.75001 16.1682C8.82201 15.6118 8.03949 14.8429 7.46689 13.9248C6.10749 12.2328 5.16162 10.247 4.70449 8.1252C4.70449 7.8624 4.80409 7.6248 5.30449 7.6248H7.05529C7.50529 7.6248 7.66729 7.8252 7.84249 8.2872C8.69209 10.788 10.1417 12.9624 10.7297 12.9624C10.9553 12.9624 11.0537 12.8628 11.0537 12.3V9.7248C10.9793 8.55 10.3553 8.4504 10.3553 8.0256C10.3633 7.91355 10.4146 7.80904 10.4984 7.73422C10.5822 7.65939 10.6919 7.62015 10.8041 7.6248H13.5545C13.9301 7.6248 14.0549 7.812 14.0549 8.262V11.7372C14.0549 12.1128 14.2169 12.2376 14.3297 12.2376C14.5553 12.2376 14.7293 12.1128 15.1421 11.7C16.0287 10.6187 16.7531 9.41409 17.2925 8.124C17.3476 7.96904 17.4519 7.83637 17.5895 7.74623C17.7271 7.6561 17.8904 7.61345 18.0545 7.6248H19.8053C20.3297 7.6248 20.4413 7.8876 20.3297 8.262C19.6931 9.68812 18.9054 11.0419 17.9801 12.3C17.7917 12.588 17.7161 12.738 17.9801 13.0752C18.1541 13.338 18.7673 13.8504 19.1801 14.3376C19.78 14.936 20.2781 15.6283 20.6549 16.3872C20.8049 16.8744 20.5541 17.124 20.0549 17.124Z" fill="white"/>
</svg>
