<svg width="32" height="32" viewBox="0 0 32 32" fill="none" xmlns="http://www.w3.org/2000/svg">
<g opacity="0.16">
<path d="M13.9998 26.5327V5.46602C13.9998 3.46602 13.1465 2.66602 11.0265 2.66602H5.63984C3.51984 2.66602 2.6665 3.46602 2.6665 5.46602V26.5327C2.6665 28.5327 3.51984 29.3327 5.63984 29.3327H11.0265C13.1465 29.3327 13.9998 28.5327 13.9998 26.5327Z" stroke="white" stroke-width="1.5" stroke-linecap="round" stroke-linejoin="round"/>
<path d="M29.3332 14.5327V5.46602C29.3332 3.46602 28.4798 2.66602 26.3598 2.66602H20.9732C18.8532 2.66602 17.9998 3.46602 17.9998 5.46602V14.5327C17.9998 16.5327 18.8532 17.3327 20.9732 17.3327H26.3598C28.4798 17.3327 29.3332 16.5327 29.3332 14.5327Z" stroke="white" stroke-width="1.5" stroke-linecap="round" stroke-linejoin="round"/>
<path d="M29.3332 26.5327V24.1327C29.3332 22.1327 28.4798 21.3327 26.3598 21.3327H20.9732C18.8532 21.3327 17.9998 22.1327 17.9998 24.1327V26.5327C17.9998 28.5327 18.8532 29.3327 20.9732 29.3327H26.3598C28.4798 29.3327 29.3332 28.5327 29.3332 26.5327Z" stroke="white" stroke-width="1.5" stroke-linecap="round" stroke-linejoin="round"/>
</g>
</svg>
