<svg width="44" height="64" viewBox="0 0 44 64" fill="none" xmlns="http://www.w3.org/2000/svg">
<path d="M21.5 0C12.9505 0 6 6.7334 6 15.0158C6 23.1401 12.5589 29.7155 21.1084 30C21.3695 29.9684 21.6305 29.9684 21.8263 30C21.8916 30 21.9242 30 21.9895 30C22.0221 30 22.0221 30 22.0547 30C30.4084 29.7155 36.9674 23.1401 37 15.0158C37 6.7334 30.0495 0 21.5 0Z" fill="white"/>
<path d="M37.875 38.5268C29.1562 32.4911 14.9375 32.4911 6.15625 38.5268C2.1875 41.285 0 45.0168 0 49.0081C0 52.9995 2.1875 56.6988 6.125 59.4246C10.5 62.4748 16.25 64 22 64C27.75 64 33.5 62.4748 37.875 59.4246C41.8125 56.6663 44 52.967 44 48.9432C43.9688 44.9519 41.8125 41.2526 37.875 38.5268Z" fill="white"/>
</svg>
