<svg width="64" height="64" viewBox="0 0 64 64" fill="none" xmlns="http://www.w3.org/2000/svg">
<path d="M63.9374 21.2624L63.0455 12.8725C61.7538 3.72547 57.5403 0 48.5292 0H15.4369C6.39498 0 2.21231 3.72547 0.889854 12.9634L0.0594721 21.2927C-0.248077 24.5336 0.643815 27.6835 2.58137 30.1369C4.91874 33.1354 8.51706 34.8316 12.5152 34.8316C16.3903 34.8316 20.1117 32.9234 22.449 29.8643C24.5404 32.9234 28.1079 34.8316 32.0753 34.8316C36.0427 34.8316 39.518 33.0143 41.6401 29.9855C44.0082 32.984 47.668 34.8316 51.4816 34.8316C55.572 34.8316 59.2626 33.0446 61.5692 29.8946C63.4145 27.4715 64.2449 24.4124 63.9374 21.2624Z" fill="white"/>
<path d="M30.076 46.6751C26.1701 47.0688 23.2176 50.34 23.2176 54.2169V62.5159C23.2176 63.3337 23.8942 64 24.7246 64H39.3947C40.2251 64 40.9017 63.3337 40.9017 62.5159V55.277C40.9324 48.9467 37.1496 45.9482 30.076 46.6751Z" fill="white"/>
<path d="M60.8924 39.8298V48.8557C60.8924 57.2153 54.0033 63.9999 45.515 63.9999C44.6846 63.9999 44.008 63.3335 44.008 62.5157V55.2768C44.008 51.3999 42.8085 48.3711 40.4712 46.3115C38.4106 44.4639 35.6119 43.5552 32.1366 43.5552C31.3677 43.5552 30.5988 43.5855 29.7685 43.6764C24.2941 44.2216 20.1422 48.7648 20.1422 54.2167V62.5157C20.1422 63.3335 19.4656 63.9999 18.6352 63.9999C10.1469 63.9999 3.25776 57.2153 3.25776 48.8557V39.8904C3.25776 37.7702 5.37984 36.3466 7.37891 37.0432C8.20929 37.3158 9.03967 37.5279 9.90081 37.649C10.2699 37.7096 10.6697 37.7702 11.0387 37.7702C11.5308 37.8307 12.0229 37.861 12.515 37.861C16.0825 37.861 19.5886 36.5586 22.3565 34.3173C25.0015 36.5586 28.446 37.861 32.0751 37.861C35.7349 37.861 39.1179 36.6192 41.7629 34.3779C44.5308 36.5889 47.9753 37.861 51.4814 37.861C52.035 37.861 52.5886 37.8307 53.1114 37.7702C53.4805 37.7399 53.8188 37.7096 54.1571 37.649C55.1105 37.5279 55.9716 37.2553 56.8328 36.9827C58.8318 36.3163 60.8924 37.7702 60.8924 39.8298Z" fill="white"/>
</svg>
