<svg width="24" height="24" viewBox="0 0 24 24" fill="none" xmlns="http://www.w3.org/2000/svg">
<path d="M14.3201 19.0698C14.3201 19.6798 13.92 20.4798 13.41 20.7898L12.0001 21.6998C10.6901 22.5098 8.87006 21.5998 8.87006 19.9798V14.6298C8.87006 13.9198 8.47006 13.0098 8.06006 12.5098L4.22003 8.46976C3.71003 7.95976 3.31006 7.05977 3.31006 6.44977V4.12976C3.31006 2.91976 4.22008 2.00977 5.33008 2.00977H18.67C19.78 2.00977 20.6901 2.91975 20.6901 4.02975V6.24976C20.6901 7.05976 20.1801 8.06976 19.6801 8.56976M19.8701 17.1198L18.8701 16.1198M19.2701 13.3198C19.2701 15.0871 17.8374 16.5197 16.0701 16.5197C14.3028 16.5197 12.8701 15.0871 12.8701 13.3198C12.8701 11.5525 14.3028 10.1198 16.0701 10.1198C17.8374 10.1198 19.2701 11.5525 19.2701 13.3198Z" stroke="url(#paint0_linear_2613_1494)" stroke-width="1.5" stroke-linecap="round" stroke-linejoin="round"/>
<defs>
<linearGradient id="paint0_linear_2613_1494" x1="3.31006" y1="2.00977" x2="23.0663" y2="4.72765" gradientUnits="userSpaceOnUse">
<stop stop-color="#FB2A29"/>
<stop offset="1" stop-color="#E66C3A"/>
<stop offset="1" stop-color="#DE5A23"/>
</linearGradient>
</defs>
</svg>
