<svg width="32" height="32" viewBox="0 0 32 32" fill="none" xmlns="http://www.w3.org/2000/svg">
<g id="vuesax/linear/notification">
<g id="notification">
<path id="Vector" d="M20.0268 25.4126C20.0268 27.6126 18.2268 29.4126 16.0268 29.4126C14.9335 29.4126 13.9201 28.9593 13.2001 28.2393C12.4801 27.5193 12.0268 26.5059 12.0268 25.4126M16.0268 3.87927C11.6135 3.87927 8.02678 7.46594 8.02678 11.8793V15.7326C8.02678 16.5459 7.68012 17.7859 7.26678 18.4793L5.73345 21.0259C4.78678 22.5993 5.44012 24.3459 7.17345 24.9326C12.9201 26.8526 19.1201 26.8526 24.8668 24.9326C26.4801 24.3993 27.1868 22.4926 26.3068 21.0259L24.7734 18.4793C24.3734 17.7859 24.0268 16.5459 24.0268 15.7326V11.8793C24.0268 7.47927 20.4268 3.87927 16.0268 3.87927ZM18.4935 4.26594C18.0801 4.14594 17.6535 4.0526 17.2135 3.99927C15.9335 3.83927 14.7068 3.9326 13.5601 4.26594C13.9468 3.27927 14.9068 2.58594 16.0268 2.58594C17.1468 2.58594 18.1068 3.27927 18.4935 4.26594Z" stroke="url(#paint0_linear_2718_17)" stroke-width="2" stroke-miterlimit="10"/>
</g>
</g>
<defs>
<linearGradient id="paint0_linear_2718_17" x1="5.29883" y1="2.58594" x2="29.6853" y2="5.66274" gradientUnits="userSpaceOnUse">
<stop stop-color="#FB2A29"/>
<stop offset="1" stop-color="#E66C3A"/>
<stop offset="1" stop-color="#DE5A23"/>
</linearGradient>
</defs>
</svg>
