<svg width="64" height="56" viewBox="0 0 64 56" fill="none" xmlns="http://www.w3.org/2000/svg">
<path id="Vector" fill-rule="evenodd" clip-rule="evenodd" d="M57.3712 0.383088C58.1581 0.0438613 59.0194 -0.0731356 59.8654 0.0442731C60.7114 0.161682 61.5112 0.509205 62.1816 1.05067C62.852 1.59214 63.3685 2.30775 63.6772 3.12302C63.986 3.9383 64.0757 4.82344 63.9371 5.6863L56.7152 50.5549C56.0147 54.8829 51.3784 57.3649 47.5031 55.209C44.2615 53.4054 39.4469 50.6266 35.1163 47.7271C32.951 46.2758 26.3181 41.6281 27.1333 38.3209C27.8339 35.4932 38.9788 24.8672 45.3474 18.5497C47.847 16.0677 46.707 14.6359 43.7552 16.9189C36.425 22.5874 24.656 31.2076 20.7648 33.6342C17.3321 35.7737 15.5426 36.139 13.4027 35.7737C9.49881 35.1084 5.87829 34.0777 2.92329 32.822C-1.06979 31.1261 -0.875549 25.5032 2.9201 23.8659L57.3712 0.383088Z" fill="#0088CC"/>
</svg>
